<svg width="297" height="50" viewBox="0 0 297 50" fill="none" xmlns="http://www.w3.org/2000/svg">
<g clip-path="url(#clip0_249_1649)">
<path d="M25.0684 0C11.2243 0 0 11.1944 0 25.0017C0 38.809 11.2243 50.0034 25.0684 50.0034C38.9124 50.0034 50.1367 38.809 50.1367 25.0017C50.1367 11.1944 38.9124 0 25.0684 0ZM25.0684 47.0995C12.8312 47.0995 2.91165 37.2064 2.91165 25.0017C2.91165 12.7971 12.8312 2.90391 25.0684 2.90391C37.3055 2.90391 47.2251 12.7971 47.2251 25.0017C47.2251 37.2064 37.3055 47.0995 25.0684 47.0995Z" fill="black"/>
<path d="M25.0683 2.90391C12.8312 2.90391 2.91162 12.7971 2.91162 25.0017C2.91162 37.2064 12.8312 47.0995 25.0683 47.0995C37.3055 47.0995 47.225 37.2064 47.225 25.0017C47.225 12.7971 37.3021 2.90391 25.0683 2.90391ZM25.0683 43.8189C14.6475 43.8189 6.20096 35.3948 6.20096 25.0017C6.20096 14.6086 14.6475 6.18451 25.0683 6.18451C35.4892 6.18451 43.9357 14.6086 43.9357 25.0017C43.9357 35.3948 35.4892 43.8189 25.0683 43.8189Z" fill="#EDBA00"/>
<path d="M25.0684 43.8189C35.4886 43.8189 43.9358 35.3942 43.9358 25.0017C43.9358 14.6093 35.4886 6.18451 25.0684 6.18451C14.6483 6.18451 6.20105 14.6093 6.20105 25.0017C6.20105 35.3942 14.6483 43.8189 25.0684 43.8189Z" fill="black"/>
<path d="M38.5657 23.1457L36.0695 17.444C36.3339 17.0913 36.4952 16.6495 36.4952 16.1736C36.4952 14.9921 35.5338 14.0299 34.3493 14.0299C34.0677 14.0299 33.7965 14.0847 33.5492 14.184L28.4332 11.4239C28.4058 10.8828 28.1723 10.3657 27.7706 9.98219C27.3379 9.56441 26.7474 9.34525 26.1499 9.36922L25.9336 9.38292L25.9268 13.6703V16.8584V38.6583V40.6171L26.1396 40.6274C26.1808 40.6274 26.2152 40.6274 26.2529 40.6274C26.8092 40.6274 27.3379 40.4185 27.75 40.0315C28.138 39.6685 28.3783 39.1754 28.4229 38.6549L35.1939 35.8263C35.3896 35.8811 35.5956 35.9153 35.812 35.9153C36.9965 35.9153 37.9579 34.9565 37.9579 33.7751C37.9579 33.4258 37.8721 33.0936 37.721 32.7991L38.8266 27.3954C39.8498 27.231 40.6327 26.3475 40.6327 25.2825C40.6327 24.1319 39.7125 23.1868 38.5657 23.1457ZM38.085 23.1833C37.1236 23.3648 36.3888 24.1867 36.3407 25.1866C35.7295 24.8647 35.1115 24.5463 34.4969 24.2209C34.49 24.2209 34.4866 24.2141 34.4797 24.2107C34.339 24.1388 34.1982 24.0634 34.054 23.9881C34.0402 23.9812 34.0265 23.9744 34.0128 23.9675C33.8823 23.899 33.7553 23.8306 33.6248 23.7655C33.5939 23.7484 33.5664 23.7313 33.5355 23.7176C33.4188 23.6559 33.2986 23.5909 33.1819 23.5292C33.1407 23.5087 33.1029 23.4881 33.0651 23.471C32.9621 23.4196 32.8591 23.3614 32.7527 23.31C32.6977 23.2792 32.6359 23.2484 32.5775 23.2176C32.4848 23.1696 32.3887 23.1217 32.296 23.0703C32.2342 23.0361 32.169 23.0053 32.1072 22.971C32.0144 22.9231 31.9183 22.8717 31.8222 22.8238C31.7604 22.7895 31.6951 22.7587 31.6368 22.7245C31.5475 22.68 31.4616 22.6354 31.3758 22.5875C31.3003 22.5464 31.2247 22.5087 31.1458 22.4676C31.0668 22.4265 30.9912 22.3889 30.9123 22.3444C30.8299 22.3033 30.7509 22.2622 30.6685 22.2177L30.4384 22.0978L30.1912 21.9677C30.1123 21.9266 30.0367 21.8855 29.9543 21.8444C29.8822 21.8033 29.8067 21.7656 29.7311 21.728C29.6419 21.68 29.5526 21.6355 29.4667 21.5876C29.429 21.567 29.3981 21.5499 29.3603 21.5362L32.5054 17.2659C32.8831 17.8892 33.5664 18.307 34.3458 18.307C34.8746 18.307 35.3553 18.1152 35.7295 17.8002L38.0815 23.1731L38.085 23.1833ZM28.2066 29.3884C28.2307 29.3781 28.2547 29.3713 28.2719 29.361C28.3062 29.3439 28.3371 29.3302 28.3714 29.3165C28.4023 29.3028 28.4298 29.2925 28.4573 29.2788C28.4916 29.2651 28.5191 29.2514 28.55 29.2377C28.6084 29.2138 28.6702 29.1898 28.7285 29.1658C28.7457 29.159 28.7663 29.1487 28.78 29.1418C28.8247 29.1247 28.8624 29.1042 28.9071 29.0905C28.9483 29.0734 28.9826 29.0562 29.0204 29.0425C29.0479 29.0323 29.0685 29.022 29.0925 29.0117C29.1406 28.9912 29.1852 28.9706 29.2333 28.9535L31.6745 31.4259L33.072 32.8436C32.787 32.7169 32.4986 32.5902 32.2136 32.4601C32.1724 32.443 32.1346 32.4259 32.0934 32.4087C31.8359 32.2923 31.575 32.1793 31.3174 32.0663C31.211 32.0184 31.1046 31.9704 31.0015 31.9225C30.8058 31.8334 30.6101 31.7478 30.4144 31.6622C30.2942 31.6109 30.1741 31.5526 30.0573 31.5013C29.8582 31.4122 29.6556 31.3232 29.4564 31.2342C29.3534 31.1862 29.2504 31.1417 29.1474 31.0972C28.8968 30.9842 28.6427 30.8712 28.392 30.7582C28.4195 30.6246 28.4367 30.4945 28.4367 30.3609C28.4367 30.0219 28.3611 29.6898 28.2066 29.3884ZM29.3431 28.4159L26.7027 25.738L35.551 25.827C35.551 25.827 35.5235 25.8373 35.5098 25.8441C35.0325 26.0427 34.5518 26.2414 34.0711 26.4434C34.0402 26.4537 34.0093 26.4674 33.9784 26.4811C33.745 26.577 33.5115 26.6763 33.278 26.7721C33.2471 26.7858 33.2231 26.7961 33.1956 26.8098C32.7183 27.0084 32.2376 27.207 31.7569 27.4091C31.7192 27.4262 31.6848 27.4399 31.6505 27.457C31.4204 27.5495 31.1973 27.6454 30.9672 27.7413C30.9191 27.7618 30.8745 27.7789 30.8264 27.796C30.6033 27.8885 30.3835 27.981 30.1603 28.0734C30.1294 28.0871 30.102 28.1008 30.0711 28.1145C29.8685 28.1967 29.6693 28.2823 29.4667 28.3645C29.4255 28.3816 29.3843 28.4022 29.3431 28.4159ZM31.7501 25.3373L26.6032 25.2859L29.0891 21.9129C29.635 22.1971 30.1809 22.4813 30.7269 22.7656C30.7406 22.7724 30.7578 22.7827 30.7715 22.7895C31.0256 22.9231 31.2831 23.0532 31.5372 23.1902C31.5715 23.2073 31.6024 23.2244 31.6368 23.2381C31.8874 23.3717 32.1381 23.4984 32.3853 23.6285C32.4162 23.6456 32.4471 23.6628 32.478 23.6765C33.0033 23.9504 33.5218 24.2209 34.0437 24.4949C34.0608 24.5052 34.078 24.5154 34.0952 24.5257C34.3458 24.6593 34.5999 24.7894 34.8506 24.923C34.8849 24.9401 34.9158 24.9572 34.9467 24.9709C35.1939 25.0976 35.4343 25.2243 35.6815 25.351C35.6952 25.3613 35.7089 25.3681 35.7227 25.375L31.7466 25.3339L31.7501 25.3373ZM28.3508 19.2795C28.4023 19.2521 28.4539 19.2316 28.5054 19.2042C28.5363 19.187 28.5637 19.1699 28.5946 19.1562C28.7835 19.0638 28.9689 18.9679 29.1543 18.872C29.1955 18.8514 29.2333 18.8309 29.2745 18.8104C29.4633 18.7145 29.6522 18.6152 29.841 18.5193C29.841 18.5193 29.8433 18.5193 29.8479 18.5193C30.0367 18.42 30.229 18.3207 30.4178 18.2214C30.4625 18.2008 30.5002 18.1768 30.5415 18.1597C30.7269 18.0604 30.9157 17.9645 31.1011 17.8652C31.1286 17.8481 31.1561 17.8344 31.187 17.8173C31.3586 17.7282 31.5303 17.6358 31.7054 17.5467C31.726 17.533 31.7466 17.5228 31.7672 17.5125L28.9483 21.3342C28.6839 21.1938 28.4127 21.0568 28.1483 20.9164C28.3268 20.6013 28.4264 20.2486 28.4298 19.8856C28.4298 19.6802 28.4023 19.4781 28.3474 19.2829L28.3508 19.2795ZM34.3493 14.4853C35.2832 14.4853 36.042 15.2387 36.042 16.1736C36.042 17.1084 35.2832 17.8618 34.3493 17.8618C33.4153 17.8618 32.6565 17.105 32.6565 16.1736C32.6565 15.2421 33.4153 14.4853 34.3493 14.4853ZM26.3869 9.83152C26.7851 9.86234 27.156 10.0267 27.4513 10.3109C27.7912 10.6363 27.9835 11.0849 27.98 11.5437C27.98 12.0026 27.7843 12.4341 27.4375 12.7594C27.1422 13.0334 26.7748 13.1977 26.3834 13.2251V9.83152H26.3869ZM26.38 13.6806C26.8916 13.6498 27.3688 13.4477 27.75 13.0916C28.0865 12.7765 28.3062 12.3656 28.392 11.9273L33.0617 14.4579C32.5363 14.8517 32.1964 15.475 32.1964 16.1736C32.1964 16.3208 32.2136 16.4646 32.2445 16.605L26.3834 16.6324V13.6806H26.38ZM26.38 17.0844L30.5621 17.0639H31.6299C31.6299 17.0639 31.6196 17.0639 31.6127 17.0639C31.4239 17.1666 31.2316 17.2694 31.0393 17.3687C31.0015 17.3892 30.9672 17.4098 30.9294 17.4269C30.7372 17.5262 30.5483 17.6255 30.3595 17.7248C30.3217 17.7454 30.2839 17.7659 30.2462 17.783C30.0573 17.8823 29.8719 17.9782 29.6831 18.0775C29.6728 18.0844 29.6625 18.0878 29.6522 18.0947C29.4564 18.194 29.2607 18.2967 29.065 18.396C29.0238 18.4165 28.9895 18.4371 28.9483 18.4542C28.756 18.5535 28.5672 18.6494 28.3783 18.7487L28.2787 18.7967C28.2444 18.8138 28.2101 18.8309 28.1757 18.8446C28.0693 18.646 27.932 18.4611 27.7637 18.3035C27.3895 17.944 26.8916 17.7282 26.3766 17.694V17.0742L26.38 17.0844ZM27.98 19.8719C27.98 20.3308 27.7843 20.7657 27.4375 21.0876C27.1422 21.365 26.7748 21.5293 26.3834 21.5533V18.1597C26.7851 18.1905 27.156 18.3549 27.4513 18.6391C27.7912 18.9679 27.9835 19.4165 27.98 19.8719ZM26.38 22.0122C26.8916 21.9814 27.3688 21.7759 27.75 21.4198C27.798 21.3752 27.8392 21.3307 27.8839 21.2828C28.1483 21.4232 28.4161 21.5602 28.6805 21.6971L26.38 24.8134V22.0122ZM26.38 26.0633L28.7594 28.4707L28.8933 28.6042C28.5672 28.7412 28.2581 28.8679 27.956 28.998C27.901 28.9261 27.8392 28.8542 27.7706 28.7926C27.3963 28.4296 26.8985 28.2138 26.3834 28.183V26.0633H26.38ZM27.98 30.3575C27.98 30.8164 27.7843 31.2479 27.4375 31.5732C27.1422 31.8471 26.7748 32.0115 26.3834 32.0389V28.6453C26.7851 28.6761 27.156 28.8405 27.4513 29.1247C27.7912 29.45 27.9835 29.8986 27.98 30.3575ZM26.38 32.4909C26.8916 32.4601 27.3688 32.2581 27.75 31.9019C27.9663 31.6999 28.1345 31.4602 28.2547 31.1931C28.2856 31.2068 28.3131 31.2205 28.344 31.2342C28.5363 31.3198 28.7285 31.4054 28.9242 31.491C29.0719 31.5561 29.2161 31.6245 29.3637 31.6862C29.5217 31.7581 29.6831 31.83 29.841 31.9019C29.9921 31.967 30.1466 32.0389 30.2942 32.1074C30.4487 32.1725 30.6067 32.2444 30.7578 32.3129C30.9088 32.3813 31.0634 32.4498 31.2144 32.5183C31.3689 32.5868 31.5269 32.6587 31.678 32.7272C31.829 32.7923 31.9801 32.8608 32.1312 32.9293C32.2788 32.9943 32.4299 33.0628 32.5775 33.1279C32.7286 33.1964 32.8831 33.2648 33.0342 33.3333L26.3731 33.4189V32.4909H26.38ZM27.4375 39.7028C27.1422 39.9801 26.7748 40.1445 26.38 40.1685L26.3869 36.7749C26.7851 36.8057 27.156 36.9701 27.4513 37.2543C27.7912 37.583 27.9835 38.0316 27.98 38.4871C27.9732 38.946 27.7809 39.3774 27.4375 39.7028ZM28.4092 38.172C28.3405 37.7063 28.1174 37.2611 27.7671 36.929C27.3929 36.5694 26.8985 36.3537 26.3834 36.3194V33.8744L33.6626 33.7785C33.6626 34.525 34.054 35.1859 34.6377 35.5695L28.4092 38.172ZM35.812 35.4668C34.878 35.4668 34.1192 34.71 34.1192 33.7785C34.1192 32.8471 34.878 32.0903 35.812 32.0903C36.7459 32.0903 37.5047 32.8436 37.5047 33.7785C37.5047 34.7134 36.7459 35.4668 35.812 35.4668ZM38.1845 28.272L37.3571 32.2957C36.9691 31.8882 36.4197 31.6348 35.812 31.6348C34.9158 31.6348 34.1501 32.1827 33.8274 32.9601L29.6899 28.7652C29.6899 28.7652 29.7105 28.7583 29.7208 28.7549C29.8341 28.7069 29.9509 28.659 30.0642 28.6076C30.102 28.5939 30.1397 28.5768 30.1775 28.5597C30.2908 28.5117 30.4041 28.4672 30.514 28.4193C30.5518 28.4022 30.5861 28.385 30.6239 28.3713C30.7372 28.3234 30.847 28.2789 30.9603 28.2275C31.0015 28.2104 31.0359 28.1967 31.0771 28.1796C31.187 28.1316 31.2968 28.0871 31.4067 28.0392C31.4479 28.0221 31.4822 28.0084 31.52 27.9912C31.6368 27.9433 31.7501 27.8954 31.8634 27.8474C31.8977 27.8337 31.9286 27.82 31.9629 27.8063C32.0762 27.7584 32.1896 27.7104 32.3029 27.6625C32.3441 27.6454 32.3784 27.6282 32.4196 27.6145C32.5295 27.5666 32.6394 27.5221 32.7492 27.4776C32.787 27.4604 32.8179 27.4468 32.8557 27.4296C32.9724 27.3817 33.0857 27.3337 33.199 27.2858C33.2196 27.2755 33.2437 27.2653 33.2643 27.255C34.339 26.8098 35.4034 26.3681 36.454 25.9297C36.7253 26.7482 37.4772 27.3474 38.37 27.3988L38.1948 28.2481L38.1845 28.272ZM38.4798 26.9708C37.5459 26.9708 36.7871 26.2174 36.7871 25.2825C36.7871 24.3477 37.5459 23.5943 38.4798 23.5943C39.4138 23.5943 40.1726 24.3511 40.1726 25.2825C40.1726 26.214 39.4172 26.9708 38.4798 26.9708Z" fill="#EDBA00"/>
<path d="M24.2099 38.6583V13.6737L24.2031 9.38634L23.9833 9.37264C23.3893 9.34525 22.7987 9.56784 22.3627 9.98562C21.9644 10.3692 21.7275 10.8897 21.7034 11.4273L16.5874 14.1874C16.3402 14.0881 16.069 14.0333 15.7874 14.0333C14.6029 14.0333 13.638 14.9955 13.638 16.177C13.638 16.653 13.796 17.0947 14.0638 17.4474L11.571 23.1491C10.4242 23.1936 9.50403 24.1353 9.50403 25.2859C9.50403 26.3509 10.2869 27.2344 11.3066 27.3988L12.4157 32.8025C12.2646 33.097 12.1753 33.4292 12.1753 33.7785C12.1753 34.9599 13.1402 35.9188 14.3247 35.9188C14.5376 35.9188 14.7471 35.8845 14.9428 35.8297L21.7103 38.6583C21.7618 39.1788 21.9987 39.6719 22.3867 40.0349C22.7987 40.4219 23.3241 40.6308 23.8803 40.6308C23.9215 40.6308 23.9559 40.6308 23.9936 40.6308L24.2134 40.6205V38.6617L24.2099 38.6583ZM22.3627 28.796C22.2974 28.8576 22.2356 28.9295 22.1773 29.0014C21.8751 28.8713 21.5661 28.7446 21.2433 28.6076L21.3738 28.4741L23.7533 26.0667V28.1864C23.2382 28.2172 22.7438 28.433 22.3661 28.796H22.3627ZM23.7498 32.0389C23.3584 32.0081 22.991 31.8471 22.6957 31.5732C22.3524 31.2479 22.1567 30.8198 22.1567 30.3575C22.1498 29.8986 22.3421 29.4466 22.6854 29.1247C22.9807 28.8405 23.3515 28.6761 23.7498 28.6453V32.0389ZM22.6957 21.0876C22.3524 20.7657 22.1567 20.3342 22.1567 19.8719C22.1498 19.4165 22.3421 18.9645 22.6854 18.6391C22.9807 18.3549 23.3515 18.1905 23.7498 18.1597V21.5533C23.3618 21.5259 22.9945 21.365 22.6992 21.0876H22.6957ZM23.7498 22.0122V24.8134L21.4528 21.6971C21.7172 21.5602 21.985 21.4232 22.2494 21.2828C22.294 21.3307 22.3352 21.3752 22.3833 21.4198C22.761 21.7759 23.2417 21.9814 23.7498 22.0122ZM22.3627 18.3104C22.1979 18.4679 22.0605 18.6528 21.9507 18.8514C21.9163 18.8343 21.8854 18.8172 21.8511 18.8035C21.8167 18.7898 21.7858 18.7693 21.7515 18.7556C21.5627 18.6563 21.3704 18.5604 21.1815 18.4611C21.1403 18.4405 21.1026 18.42 21.0614 18.4028C20.8691 18.3035 20.6734 18.2008 20.4777 18.1015C20.4674 18.0947 20.4571 18.0912 20.4468 18.0844C20.2579 17.9851 20.0691 17.8892 19.8802 17.7899C19.8425 17.7693 19.8081 17.7488 19.7704 17.7317C19.5815 17.6324 19.3892 17.533 19.2004 17.4337C19.1626 17.4132 19.1248 17.3926 19.0871 17.3755C18.8982 17.2762 18.7059 17.1735 18.5137 17.0707C18.5137 17.0707 18.5034 17.0707 18.4999 17.0639H19.5678L23.7498 17.0879V17.7077C23.2348 17.7419 22.7404 17.9542 22.3627 18.3172V18.3104ZM18.9429 17.8104C18.9738 17.8275 18.9978 17.8412 19.0287 17.8584C19.2141 17.9577 19.3995 18.0536 19.5884 18.1529C19.6296 18.1734 19.6673 18.1974 19.7085 18.2145C19.9008 18.3138 20.0897 18.4131 20.2819 18.5124C20.4708 18.6083 20.6596 18.7076 20.8519 18.8035C20.8931 18.8275 20.9309 18.848 20.9721 18.8651C21.1575 18.961 21.3429 19.0569 21.5283 19.1494C21.5592 19.1665 21.5901 19.1836 21.621 19.1973C21.6725 19.2247 21.724 19.2453 21.7755 19.2727C21.7206 19.4678 21.6897 19.6699 21.6897 19.8753C21.6897 20.2349 21.7927 20.5911 21.9713 20.9061C21.7069 21.0465 21.4391 21.1835 21.1712 21.3239L18.3557 17.5022C18.3763 17.5125 18.4004 17.5228 18.4175 17.5365C18.5892 17.6255 18.7609 17.718 18.936 17.807L18.9429 17.8104ZM23.5301 25.2825L18.3832 25.3339L14.4071 25.375C14.4071 25.375 14.4346 25.3613 14.4483 25.351C14.6921 25.2243 14.9359 25.0976 15.1797 24.9709C15.214 24.9538 15.2449 24.9366 15.2758 24.9229C15.5265 24.7894 15.784 24.6593 16.0346 24.5257C16.0518 24.5154 16.069 24.5052 16.0861 24.4949C16.6046 24.2244 17.1265 23.9538 17.6518 23.6765C17.6828 23.6593 17.7102 23.6422 17.7446 23.6285C17.9918 23.4984 18.2424 23.3717 18.4896 23.2381C18.524 23.221 18.5549 23.2039 18.5892 23.1902C18.8433 23.0532 19.1008 22.9231 19.3549 22.7895C19.3721 22.7827 19.3858 22.7724 19.403 22.7656C19.9455 22.4813 20.4948 22.1971 21.0408 21.9129L23.5267 25.2859L23.5301 25.2825ZM23.4271 25.7414L20.7901 28.4193C20.7455 28.4022 20.7077 28.3816 20.6631 28.3679C20.4639 28.2857 20.2613 28.2001 20.0622 28.1179C20.0313 28.1042 20.0004 28.0905 19.9695 28.0768C19.7463 27.9844 19.5266 27.8919 19.3034 27.7995C19.2553 27.7789 19.2141 27.7618 19.166 27.7447C18.936 27.6488 18.7094 27.5529 18.4828 27.4604C18.445 27.4433 18.4141 27.4296 18.3763 27.4125C17.8956 27.2105 17.4149 27.0118 16.9377 26.8132C16.9102 26.7995 16.8827 26.7893 16.8553 26.7756C16.6183 26.6797 16.3883 26.5804 16.1514 26.4845C16.1205 26.4708 16.093 26.4571 16.0621 26.4468C15.578 26.2448 15.1007 26.0462 14.6235 25.8475C14.6097 25.8407 14.596 25.8338 14.5823 25.8304L23.4271 25.7414ZM20.8966 28.9569C20.9446 28.9775 20.9927 28.998 21.0408 29.0151C21.0648 29.0254 21.0888 29.0357 21.1094 29.046C21.1506 29.0597 21.185 29.0768 21.2227 29.0939C21.2674 29.111 21.3086 29.1316 21.3532 29.1453C21.3704 29.1521 21.3876 29.1624 21.4013 29.1692C21.4631 29.1932 21.5215 29.2172 21.5798 29.2411C21.6142 29.2548 21.6416 29.2685 21.6725 29.2822C21.7034 29.2959 21.7309 29.3062 21.7584 29.3199C21.7927 29.3336 21.8236 29.3473 21.858 29.3644C21.882 29.3747 21.906 29.3815 21.9266 29.3918C21.7755 29.6932 21.6897 30.0288 21.6931 30.3644C21.6931 30.4979 21.7103 30.628 21.7378 30.7616C21.4871 30.8746 21.2365 30.9876 20.9858 31.1006C20.8828 31.1451 20.7798 31.1896 20.6768 31.2376C20.4777 31.3266 20.2751 31.4157 20.0759 31.5047C19.9558 31.5561 19.8356 31.6143 19.7188 31.6656C19.5231 31.7513 19.3274 31.8369 19.1317 31.9259C19.0253 31.9738 18.9188 32.0184 18.8124 32.0697C18.5549 32.1862 18.2974 32.2992 18.0398 32.4122C17.9986 32.4327 17.9609 32.4498 17.9162 32.4635C17.6312 32.5937 17.3463 32.7204 17.0613 32.8471L18.4587 31.4294L20.8966 28.9569ZM17.5488 33.1244C17.6965 33.0594 17.8476 32.9909 17.9952 32.9258C18.1428 32.8573 18.2974 32.7888 18.445 32.7238C18.5995 32.6553 18.7575 32.5834 18.9085 32.5149C19.0596 32.4464 19.2141 32.3779 19.3686 32.3094C19.5197 32.2409 19.6776 32.169 19.8287 32.104C19.9798 32.0355 20.1343 31.9636 20.2854 31.8985C20.4433 31.8266 20.6047 31.7547 20.7626 31.6828C20.9103 31.6211 21.0545 31.5526 21.2021 31.4876C21.3944 31.402 21.5901 31.3163 21.7824 31.2307C21.8133 31.217 21.8408 31.2033 21.8717 31.1896C21.9884 31.4533 22.1601 31.6965 22.3764 31.8985C22.7541 32.2546 23.2348 32.4567 23.743 32.4875V33.4155L17.0819 33.3299C17.233 33.2614 17.3875 33.1929 17.542 33.1244H17.5488ZM22.682 10.3109C22.9773 10.0267 23.3481 9.86234 23.743 9.83152L23.7498 13.2251C23.3584 13.1943 22.991 13.0334 22.6957 12.7594C22.3524 12.4341 22.1567 12.006 22.1567 11.5437C22.1498 11.0849 22.3421 10.6328 22.6854 10.3109H22.682ZM21.7378 11.9238C21.8236 12.3656 22.0502 12.7731 22.3833 13.0881C22.761 13.4443 23.2417 13.6463 23.7498 13.6771V16.629L17.8922 16.6016C17.9231 16.4612 17.9368 16.3174 17.9368 16.1701C17.9368 15.4681 17.5935 14.8449 17.0716 14.4545L21.7412 11.9238H21.7378ZM15.7874 14.4853C16.7214 14.4853 17.4802 15.2387 17.4802 16.1735C17.4802 17.1084 16.7214 17.8618 15.7874 17.8618C14.8535 17.8618 14.0947 17.105 14.0947 16.1735C14.0947 15.2421 14.8501 14.4853 15.7874 14.4853ZM14.4003 17.8104C14.7745 18.1255 15.2587 18.3172 15.7874 18.3172C16.5668 18.3172 17.2501 17.896 17.6244 17.2762L20.7695 21.5465C20.7352 21.5636 20.7008 21.5807 20.6665 21.5978C20.5772 21.6458 20.4914 21.6903 20.4021 21.7382C20.33 21.7759 20.2545 21.8136 20.1755 21.8547C20.0965 21.8958 20.021 21.9369 19.9386 21.9779C19.8596 22.0225 19.7772 22.0636 19.6914 22.1081C19.6158 22.1492 19.5403 22.1868 19.4613 22.2279C19.3824 22.2724 19.3 22.3135 19.2175 22.3546C19.1386 22.3991 19.063 22.4368 18.9841 22.4779C18.9051 22.519 18.833 22.5567 18.754 22.5978C18.6682 22.6457 18.5789 22.6902 18.4931 22.7347C18.4313 22.769 18.366 22.7998 18.3077 22.8341C18.2115 22.882 18.1154 22.9334 18.0192 22.9813C17.9574 23.0155 17.8922 23.0464 17.8304 23.0806C17.7377 23.1286 17.645 23.1765 17.5523 23.2279C17.4939 23.2587 17.4321 23.2895 17.3737 23.3203C17.2707 23.3717 17.1677 23.4299 17.0647 23.4813C17.0235 23.5018 16.9892 23.5224 16.948 23.5395L16.5909 23.7278C16.56 23.7415 16.5325 23.7586 16.505 23.7758C16.3746 23.8408 16.2475 23.9093 16.1171 23.9778C16.1033 23.9847 16.0896 23.9915 16.0724 23.9984C15.9316 24.0737 15.7909 24.1456 15.6467 24.2209C15.6467 24.2209 15.6364 24.2278 15.6329 24.2312C15.0114 24.5565 14.4003 24.875 13.7857 25.1969C13.7376 24.197 13.0063 23.3785 12.0449 23.1936L14.3934 17.8207L14.4003 17.8104ZM9.95726 25.2825C9.95726 24.3511 10.7161 23.5943 11.65 23.5943C12.5839 23.5943 13.3427 24.3511 13.3427 25.2825C13.3427 26.214 12.5839 26.9708 11.65 26.9708C10.7161 26.9708 9.95726 26.2174 9.95726 25.2825ZM11.9522 28.272L11.777 27.4228C12.6732 27.3714 13.4217 26.7721 13.693 25.9537C14.7436 26.392 15.808 26.8304 16.8827 27.279C16.9068 27.2892 16.9308 27.2995 16.9514 27.3098C17.0647 27.3577 17.1815 27.4057 17.2948 27.4536C17.3291 27.4707 17.3634 27.4844 17.3978 27.5015C17.5076 27.5461 17.6209 27.5906 17.7308 27.6385C17.7686 27.6556 17.8064 27.6728 17.8441 27.6865C17.9609 27.7344 18.0742 27.7789 18.1875 27.8303C18.2218 27.844 18.2527 27.8577 18.2871 27.8714C18.4004 27.9193 18.5137 27.9673 18.627 28.0152C18.6647 28.0323 18.7025 28.046 18.7403 28.0631C18.8502 28.1111 18.96 28.1556 19.0733 28.2035C19.1111 28.2207 19.1489 28.2344 19.1866 28.2515C19.3 28.2994 19.4133 28.3474 19.5266 28.3953C19.5643 28.409 19.5952 28.4261 19.633 28.4433C19.7463 28.4912 19.8596 28.5357 19.9695 28.5837C20.0107 28.6008 20.045 28.6179 20.0862 28.6316C20.1995 28.6795 20.3129 28.7275 20.4296 28.7789C20.4399 28.7789 20.4502 28.7857 20.4605 28.7891L16.3231 32.984C16.0003 32.2067 15.2312 31.6588 14.3385 31.6588C13.7273 31.6588 13.1814 31.9122 12.7899 32.3197L11.9659 28.296L11.9522 28.272ZM14.3247 35.4667C13.3908 35.4667 12.632 34.71 12.632 33.7785C12.632 32.8471 13.3874 32.0903 14.3247 32.0903C15.2621 32.0903 16.0175 32.8436 16.0175 33.7785C16.0175 34.7134 15.2587 35.4667 14.3247 35.4667ZM15.499 35.5695C16.0827 35.1859 16.4707 34.5285 16.4707 33.7785L23.7498 33.8744V36.3194C23.2382 36.3537 22.7438 36.566 22.3696 36.929C22.0193 37.2646 21.7961 37.7063 21.7275 38.172L15.499 35.5695ZM22.6992 39.7028C22.3558 39.3774 22.1601 38.9494 22.1601 38.4871C22.1532 38.0316 22.3455 37.5796 22.6889 37.2543C22.9842 36.9701 23.355 36.8057 23.7533 36.7749V40.1685C23.3653 40.1411 22.9979 39.9801 22.7026 39.7028H22.6992Z" fill="#EDBA00"/>
<path d="M236.397 11.1225L236.414 11.1705C236.434 12.2868 236.067 13.1772 235.315 13.8449C234.563 14.5127 233.574 14.8483 232.348 14.8483C231.123 14.8483 230.051 14.3894 229.272 13.4751C228.493 12.5608 228.101 11.3759 228.101 9.91713V8.06109C228.101 6.61256 228.493 5.42429 229.272 4.50312C230.051 3.58195 231.075 3.12307 232.348 3.12307C233.622 3.12307 234.58 3.44839 235.325 4.10246C236.07 4.7531 236.434 5.65372 236.414 6.79406L236.397 6.842H235.518C235.518 5.92425 235.236 5.20855 234.673 4.69488C234.11 4.18122 233.334 3.92439 232.345 3.92439C231.356 3.92439 230.546 4.31135 229.942 5.08184C229.337 5.85234 229.035 6.842 229.035 8.04739V9.91713C229.035 11.1362 229.337 12.1327 229.942 12.9032C230.546 13.6737 231.346 14.0573 232.345 14.0573C233.344 14.0573 234.11 13.8073 234.673 13.3073C235.236 12.8073 235.518 12.0779 235.518 11.1225H236.397Z" fill="#EFEBE7"/>
<path d="M242.488 7.02007L241.822 6.97212C241.231 6.97212 240.747 7.1365 240.366 7.46867C239.988 7.80083 239.717 8.25628 239.552 8.83501V14.6805H238.611V6.21533H239.435L239.552 7.62277V7.71522C239.799 7.19471 240.129 6.78721 240.541 6.49613C240.953 6.20505 241.447 6.0578 242.017 6.0578C242.134 6.0578 242.244 6.06808 242.347 6.0852C242.453 6.10232 242.539 6.12287 242.604 6.14341L242.488 7.02007Z" fill="#EFEBE7"/>
<path d="M246.646 12.3896L246.945 13.3998H246.993L249.557 6.21533H250.608L246.921 16.0366C246.701 16.6119 246.416 17.0981 246.066 17.4988C245.715 17.8995 245.204 18.1015 244.527 18.1015C244.417 18.1015 244.284 18.0878 244.126 18.0673C243.968 18.0433 243.854 18.0193 243.779 17.9919L243.889 17.2112C243.95 17.2214 244.053 17.2317 244.191 17.2454C244.328 17.2591 244.431 17.2659 244.493 17.2659C244.902 17.2659 245.228 17.1221 245.475 16.831C245.722 16.54 245.928 16.1701 246.103 15.7147L246.55 14.5709L243.271 6.2119H244.314L246.646 12.3861V12.3896Z" fill="#EFEBE7"/>
<path d="M258.931 10.6842C258.931 11.9512 258.643 12.9614 258.069 13.7182C257.492 14.4716 256.703 14.8483 255.693 14.8483C255.103 14.8483 254.584 14.7353 254.134 14.5127C253.688 14.2901 253.321 13.9716 253.039 13.5573V17.9406H252.098V6.21533H252.819L252.991 7.53715C253.273 7.06801 253.64 6.70502 254.09 6.44476C254.54 6.18793 255.068 6.0578 255.676 6.0578C256.696 6.0578 257.492 6.46189 258.069 7.27347C258.646 8.08506 258.931 9.16718 258.931 10.5164V10.6808V10.6842ZM257.99 10.5198C257.99 9.44456 257.777 8.56791 257.348 7.88987C256.919 7.21183 256.291 6.87282 255.467 6.87282C254.845 6.87282 254.337 7.02007 253.942 7.31799C253.547 7.61592 253.249 8.00288 253.042 8.47545V12.5745C253.262 13.0334 253.575 13.3963 253.976 13.66C254.378 13.9237 254.883 14.0538 255.484 14.0538C256.304 14.0538 256.929 13.7456 257.355 13.1292C257.781 12.5128 257.994 11.6978 257.994 10.6808V10.5164L257.99 10.5198Z" fill="#EFEBE7"/>
<path d="M262.509 4.04767V6.21533H264.377V6.9824H262.509V12.4991C262.509 13.0505 262.608 13.4443 262.811 13.6771C263.013 13.91 263.281 14.0264 263.614 14.0264C263.728 14.0264 263.841 14.0196 263.947 14.0059C264.054 13.9922 264.181 13.9716 264.329 13.9408L264.469 14.636C264.342 14.6976 264.188 14.749 264.002 14.7867C263.817 14.8243 263.632 14.8449 263.45 14.8449C262.852 14.8449 262.389 14.6565 262.056 14.2798C261.722 13.9032 261.558 13.3107 261.558 12.4957V6.97897H260.092V6.2119H261.558V4.04424H262.509V4.04767Z" fill="#EFEBE7"/>
<path d="M265.688 10.3212C265.688 9.07472 266.032 8.05082 266.715 7.25293C267.402 6.45504 268.308 6.05438 269.438 6.05438C270.567 6.05438 271.484 6.45161 272.167 7.25293C272.854 8.05082 273.194 9.07472 273.194 10.3212V10.578C273.194 11.8314 272.854 12.8553 272.171 13.6497C271.488 14.4442 270.581 14.8449 269.451 14.8449C268.322 14.8449 267.398 14.4476 266.711 13.6497C266.025 12.8519 265.685 11.8314 265.685 10.578V10.3212H265.688ZM266.629 10.5815C266.629 11.5609 266.876 12.3861 267.374 13.0539C267.872 13.7217 268.566 14.0573 269.455 14.0573C270.344 14.0573 271.014 13.7217 271.515 13.0539C272.013 12.3861 272.264 11.5609 272.264 10.5815V10.3246C272.264 9.35895 272.013 8.54051 271.512 7.8659C271.01 7.19471 270.32 6.85569 269.441 6.85569C268.562 6.85569 267.875 7.19129 267.378 7.8659C266.88 8.54051 266.632 9.35895 266.632 10.3246V10.5815H266.629Z" fill="#EFEBE7"/>
<path d="M232.568 23.947L235.792 19.0809H236.929L233.131 24.7004L237.056 30.4739H235.933L232.582 25.4503L229.238 30.4739H228.101L232.026 24.7004L228.221 19.0809H229.358L232.568 23.947Z" fill="#EFEBE7"/>
<path d="M245.571 26.4742C245.571 27.7413 245.283 28.7515 244.709 29.5083C244.132 30.2616 243.343 30.6383 242.333 30.6383C241.743 30.6383 241.224 30.5253 240.774 30.3027C240.328 30.0801 239.961 29.7617 239.679 29.3473V33.7306H238.738V22.0088H239.459L239.631 23.3306C239.913 22.8614 240.28 22.4985 240.73 22.2382C241.18 21.9814 241.708 21.8512 242.316 21.8512C243.336 21.8512 244.132 22.2553 244.709 23.0669C245.286 23.8785 245.571 24.9606 245.571 26.3098V26.4742ZM244.627 26.3098C244.627 25.2346 244.414 24.3579 243.985 23.6799C243.556 23.0019 242.927 22.6628 242.103 22.6628C241.482 22.6628 240.974 22.8101 240.579 23.108C240.184 23.4059 239.885 23.7929 239.679 24.2655V28.3645C239.899 28.8234 240.211 29.1864 240.613 29.45C241.015 29.7137 241.52 29.8438 242.12 29.8438C242.941 29.8438 243.566 29.5356 243.992 28.9193C244.417 28.3029 244.63 27.4878 244.63 26.4708V26.3064L244.627 26.3098Z" fill="#EFEBE7"/>
<path d="M250.903 30.6383C249.805 30.6383 248.912 30.2514 248.229 29.4774C247.542 28.7035 247.202 27.707 247.202 26.4913V26.0599C247.202 24.8408 247.549 23.8306 248.242 23.0395C248.936 22.2451 249.794 21.8512 250.821 21.8512C251.848 21.8512 252.648 22.18 253.211 22.8409C253.774 23.5018 254.055 24.3887 254.055 25.5051V26.2311H248.146V26.4879C248.146 27.4536 248.39 28.2549 248.881 28.8919C249.369 29.5288 250.045 29.8473 250.91 29.8473C251.429 29.8473 251.903 29.7617 252.339 29.5939C252.771 29.4261 253.135 29.1966 253.42 28.909L253.822 29.5493C253.523 29.861 253.132 30.1212 252.648 30.3267C252.164 30.5322 251.583 30.6349 250.91 30.6349L250.903 30.6383ZM250.818 22.6457C250.097 22.6457 249.502 22.9025 249.036 23.4196C248.569 23.9367 248.297 24.5908 248.218 25.3852L248.242 25.4332H253.108V25.238C253.108 24.488 252.912 23.8682 252.517 23.3785C252.122 22.8888 251.556 22.6457 250.818 22.6457Z" fill="#EFEBE7"/>
<path d="M259.827 22.8135L259.161 22.7656C258.571 22.7656 258.083 22.9299 257.705 23.2621C257.328 23.5943 257.056 24.0497 256.895 24.6285V30.4739H255.954V22.0088H256.778L256.895 23.4162V23.5087C257.139 22.9882 257.468 22.5806 257.884 22.2896C258.296 21.9985 258.79 21.8512 259.36 21.8512C259.474 21.8512 259.583 21.8615 259.69 21.8786C259.793 21.8958 259.882 21.9163 259.947 21.9369L259.831 22.8135H259.827Z" fill="#EFEBE7"/>
<path d="M263.034 19.8377V22.0053H264.902V22.7724H263.034V28.2892C263.034 28.8405 263.134 29.2343 263.336 29.4672C263.539 29.7 263.807 29.8165 264.14 29.8165C264.256 29.8165 264.366 29.8096 264.473 29.7959C264.579 29.7822 264.706 29.7617 264.854 29.7308L264.995 30.426C264.868 30.4876 264.713 30.539 264.528 30.5767C264.342 30.6143 264.157 30.6349 263.975 30.6349C263.378 30.6349 262.914 30.4465 262.581 30.0699C262.248 29.6932 262.083 29.1007 262.083 28.2857V22.769H260.617V22.0019H262.083V19.8343H263.031L263.034 19.8377Z" fill="#EFEBE7"/>
<path d="M271.821 28.3063C271.821 27.909 271.656 27.5632 271.33 27.2687C271.003 26.9742 270.413 26.731 269.561 26.5461C268.555 26.3372 267.81 26.053 267.323 25.69C266.835 25.327 266.588 24.8202 266.588 24.1696C266.588 23.5189 266.863 22.9745 267.408 22.5259C267.954 22.0773 268.679 21.8547 269.578 21.8547C270.526 21.8547 271.282 22.0944 271.845 22.5704C272.411 23.0464 272.679 23.6354 272.652 24.3339L272.634 24.3819H271.762C271.762 23.9162 271.563 23.5121 271.161 23.1696C270.76 22.8272 270.231 22.6526 269.572 22.6526C268.912 22.6526 268.38 22.7998 268.033 23.0977C267.69 23.3957 267.515 23.7415 267.515 24.1388C267.515 24.536 267.663 24.8442 267.958 25.0976C268.253 25.351 268.844 25.5736 269.726 25.7654C270.718 25.9845 271.47 26.2893 271.982 26.6797C272.494 27.0701 272.748 27.5974 272.748 28.2618C272.748 28.9672 272.463 29.5391 271.889 29.9808C271.316 30.4226 270.56 30.6417 269.616 30.6417C268.586 30.6417 267.776 30.3952 267.189 29.9055C266.602 29.4158 266.32 28.8302 266.354 28.1522L266.372 28.1042H267.233C267.271 28.7138 267.518 29.159 267.982 29.4329C268.445 29.7103 268.991 29.8473 269.616 29.8473C270.296 29.8473 270.832 29.6966 271.223 29.3918C271.615 29.0905 271.81 28.7275 271.81 28.3029L271.821 28.3063Z" fill="#EFEBE7"/>
<path d="M229.509 46.0996V38.4015H228.105V37.6344H229.509V36.3982C229.509 35.5489 229.722 34.8914 230.151 34.4257C230.58 33.96 231.178 33.7306 231.947 33.7306C232.115 33.7306 232.287 33.7443 232.465 33.7682C232.644 33.7956 232.826 33.8299 233.015 33.8778L232.888 34.6517C232.761 34.6209 232.633 34.5969 232.503 34.5764C232.373 34.5593 232.218 34.549 232.039 34.549C231.528 34.549 231.133 34.71 230.858 35.0353C230.584 35.3572 230.446 35.8126 230.446 36.3982V37.6344H232.369V38.4015H230.446V46.0996H229.505H229.509Z" fill="#EFEBE7"/>
<path d="M233.502 41.7403C233.502 40.4938 233.846 39.4699 234.529 38.672C235.215 37.8741 236.122 37.4735 237.252 37.4735C238.381 37.4735 239.298 37.8707 239.981 38.672C240.668 39.4699 241.008 40.4938 241.008 41.7403V41.9971C241.008 43.2505 240.668 44.2744 239.985 45.0688C239.301 45.8633 238.395 46.264 237.265 46.264C236.136 46.264 235.212 45.8667 234.525 45.0688C233.839 44.2744 233.499 43.2505 233.499 41.9971V41.7403H233.502ZM234.443 42.0005C234.443 42.9799 234.69 43.8052 235.188 44.473C235.686 45.1407 236.379 45.4763 237.269 45.4763C238.158 45.4763 238.828 45.1407 239.329 44.473C239.827 43.8052 240.077 42.9799 240.077 42.0005V41.7437C240.077 40.778 239.827 39.9596 239.325 39.285C238.824 38.6138 238.134 38.2748 237.255 38.2748C236.376 38.2748 235.689 38.6104 235.191 39.285C234.694 39.9596 234.446 40.778 234.446 41.7437V42.0005H234.443Z" fill="#EFEBE7"/>
<path d="M246.848 38.4391L246.182 38.3912C245.592 38.3912 245.108 38.5556 244.726 38.8877C244.349 39.2199 244.078 39.6754 243.913 40.2541V46.0996H242.972V37.6344H243.796L243.913 39.0418V39.1343C244.16 38.6138 244.49 38.2063 244.902 37.9152C245.314 37.6241 245.808 37.4769 246.378 37.4769C246.495 37.4769 246.605 37.4872 246.708 37.5043C246.811 37.5214 246.9 37.542 246.965 37.5625L246.848 38.4391Z" fill="#EFEBE7"/>
<path d="M253.527 41.367V46.0996H252.586V34.7065H256.524C257.722 34.7065 258.649 35.0113 259.305 35.6208C259.961 36.2304 260.291 37.0351 260.291 38.0316C260.291 39.0281 259.961 39.8534 259.305 40.4561C258.649 41.0623 257.722 41.3636 256.524 41.3636H253.527V41.367ZM253.527 40.5657H256.524C257.465 40.5657 258.172 40.326 258.643 39.85C259.113 39.374 259.35 38.7713 259.35 38.0453C259.35 37.3194 259.113 36.7098 258.643 36.227C258.172 35.7441 257.465 35.5044 256.524 35.5044H253.527V40.5691V40.5657Z" fill="#EFEBE7"/>
<path d="M266.148 38.4391L265.482 38.3912C264.892 38.3912 264.408 38.5556 264.026 38.8877C263.649 39.2199 263.377 39.6754 263.213 40.2541V46.0996H262.272V37.6344H263.096L263.213 39.0418V39.1343C263.46 38.6138 263.789 38.2063 264.202 37.9152C264.614 37.6241 265.108 37.4769 265.678 37.4769C265.795 37.4769 265.905 37.4872 266.008 37.5043C266.111 37.5214 266.2 37.542 266.265 37.5625L266.148 38.4391Z" fill="#EFEBE7"/>
<path d="M267.075 41.7403C267.075 40.4938 267.419 39.4699 268.102 38.672C268.789 37.8741 269.695 37.4735 270.825 37.4735C271.955 37.4735 272.871 37.8707 273.555 38.672C274.241 39.4699 274.581 40.4938 274.581 41.7403V41.9971C274.581 43.2505 274.241 44.2744 273.558 45.0688C272.875 45.8633 271.968 46.264 270.839 46.264C269.709 46.264 268.785 45.8667 268.099 45.0688C267.412 44.2744 267.072 43.2505 267.072 41.9971V41.7403H267.075ZM268.016 42.0005C268.016 42.9799 268.263 43.8052 268.761 44.473C269.259 45.1407 269.953 45.4763 270.842 45.4763C271.731 45.4763 272.401 45.1407 272.902 44.473C273.4 43.8052 273.651 42.9799 273.651 42.0005V41.7437C273.651 40.778 273.4 39.9596 272.899 39.285C272.397 38.6138 271.707 38.2748 270.828 38.2748C269.949 38.2748 269.263 38.6104 268.765 39.285C268.267 39.9596 268.02 40.778 268.02 41.7437V42.0005H268.016Z" fill="#EFEBE7"/>
<path d="M277.095 46.0996V38.4015H275.683V37.6344H277.095V36.5557C277.095 35.6585 277.342 34.9634 277.84 34.4702C278.337 33.9771 279.028 33.7306 279.91 33.7306C280.26 33.7306 280.617 33.7682 280.978 33.847C281.338 33.9258 281.706 34.0388 282.077 34.1894L281.919 34.9942C281.599 34.8641 281.29 34.7613 280.992 34.6894C280.693 34.6175 280.353 34.5798 279.972 34.5798C279.333 34.5798 278.853 34.751 278.523 35.0901C278.197 35.4291 278.032 35.9153 278.032 36.5523V37.631H280.017V38.3981H278.032V46.0962H277.091L277.095 46.0996ZM282.588 46.0996H281.647V37.6344H282.588V46.0996Z" fill="#EFEBE7"/>
<path d="M286.643 35.4668V37.6344H288.511V38.4015H286.643V43.9182C286.643 44.4696 286.743 44.8634 286.945 45.0962C287.148 45.3291 287.416 45.4455 287.749 45.4455C287.866 45.4455 287.975 45.4387 288.082 45.425C288.188 45.4113 288.315 45.3907 288.463 45.3599L288.604 46.0551C288.477 46.1167 288.322 46.1681 288.137 46.2057C287.951 46.2434 287.766 46.264 287.584 46.264C286.987 46.264 286.523 46.0756 286.19 45.6989C285.857 45.3222 285.692 44.7298 285.692 43.9148V38.3981H284.226V37.631H285.692V35.4633H286.64L286.643 35.4668Z" fill="#EFEBE7"/>
<path d="M295.43 43.9319C295.43 43.5347 295.265 43.1888 294.939 42.8943C294.613 42.5998 294.022 42.3567 293.17 42.1718C292.164 41.9629 291.419 41.6787 290.932 41.3157C290.444 40.9527 290.197 40.4459 290.197 39.7952C290.197 39.1446 290.472 38.6001 291.018 38.1515C291.564 37.7029 292.288 37.4803 293.188 37.4803C294.135 37.4803 294.891 37.72 295.454 38.196C296.02 38.672 296.288 39.261 296.261 39.9596L296.243 40.0075H295.371C295.371 39.5418 295.172 39.1377 294.77 38.7953C294.369 38.4528 293.84 38.2782 293.181 38.2782C292.521 38.2782 291.989 38.4255 291.643 38.7234C291.296 39.0213 291.124 39.3672 291.124 39.7644C291.124 40.1616 291.272 40.4698 291.567 40.7232C291.862 40.9766 292.453 41.1992 293.335 41.391C294.331 41.6102 295.079 41.9149 295.591 42.3053C296.103 42.6957 296.357 43.2231 296.357 43.8874C296.357 44.5928 296.072 45.1647 295.498 45.6065C294.925 46.0482 294.17 46.2674 293.225 46.2674C292.195 46.2674 291.385 46.0208 290.798 45.5311C290.211 45.0414 289.929 44.4559 289.963 43.7778L289.981 43.7299H290.842C290.88 44.3394 291.127 44.7846 291.591 45.0586C292.055 45.3359 292.6 45.4729 293.225 45.4729C293.905 45.4729 294.441 45.3222 294.832 45.0175C295.224 44.7161 295.419 44.3531 295.419 43.9285L295.43 43.9319Z" fill="#EFEBE7"/>
<path d="M144.316 46.5311H160.549L140.638 26.618L132.511 34.7271L144.316 46.5311Z" fill="#EFEBE7"/>
<path d="M116.895 2.87651L100.716 2.92446L118.743 20.954L126.88 12.8382L116.895 2.87651Z" fill="#EFEBE7"/>
<path d="M153.617 13.66C161.102 13.7182 174.933 13.821 187.469 13.8826C190.305 13.8826 192.959 16.3379 192.959 19.3583C192.959 22.3786 190.892 24.8339 187.469 24.8339H166.273V46.5311H177.271V35.0113L188.128 34.9462C197.9 34.9907 204.108 26.666 203.943 19.0672C204.276 13.8826 200.262 2.92788 187.469 2.92788H164.35L153.617 13.66Z" fill="#EFEBE7"/>
<path d="M104.15 35.7133C96.373 35.6791 91.1025 35.6345 82.0001 35.6345C76.479 35.6345 71.7235 31.0424 71.2771 25.5976C70.7552 19.2624 76.3039 14.1668 82.4121 13.9032C85.0697 13.7901 97.458 13.8895 106.138 13.8484C102.375 10.0164 98.9722 6.75981 95.209 2.92788H81.6224C71.2634 2.92788 59.9189 11.4136 59.9189 24.0155C59.9189 36.6173 69.2204 46.5311 81.6705 46.5311H93.3308L104.147 35.7133H104.15Z" fill="#EFEBE7"/>
<path d="M98.8314 46.5311H115.072L158.73 2.92788H142.434L98.8314 46.5311Z" fill="#EFEBE7"/>
<path d="M216.29 2.87651V46.5311" stroke="#EDBA00" stroke-width="2" stroke-miterlimit="10"/>
</g>
<defs>
<clipPath id="clip0_249_1649">
<rect width="296.364" height="50" fill="white"/>
</clipPath>
</defs>
</svg>
