<svg width="80" height="81" viewBox="0 0 80 81" fill="none" xmlns="http://www.w3.org/2000/svg">
<path d="M33.3333 33.8333C33.3333 33.8333 30 28.8333 23.3333 27.1667M46.6667 33.8333C46.6667 33.8333 50 28.8333 56.6667 27.1667M33.3333 50.5C33.3333 50.5 30 45.5 23.3333 43.8333M46.6667 50.5C46.6667 50.5 48.3333 48.8333 51.6667 47.1667M40 18.3133C40 18.3133 47.5 13.04 55 11.28C62.5 9.52334 70 11.28 70 11.28V60.1367C70 60.1367 62.5 58.3767 55 60.1367C47.5 61.8933 40 67.1667 40 67.1667C40 67.1667 32.5 61.8933 25 60.1367C17.5 58.3767 10 60.1367 10 60.1367V11.28C10 11.28 17.5 9.52334 25 11.28C32.5 13.04 40 18.3133 40 18.3133Z" stroke="white" stroke-width="3" stroke-linecap="round" stroke-linejoin="round"/>
</svg>
