<svg width="12" height="13" viewBox="0 0 12 13" fill="none" xmlns="http://www.w3.org/2000/svg">
<path d="M11.705 6.43008L10.5383 4.97175C10.484 4.903 10.4149 4.84737 10.3361 4.809C10.2573 4.77062 10.1709 4.75049 10.0833 4.75008H6.58329V1.25008C6.58329 1.09537 6.52184 0.946999 6.41244 0.837602C6.30304 0.728206 6.15467 0.666748 5.99996 0.666748C5.84525 0.666748 5.69688 0.728206 5.58748 0.837602C5.47809 0.946999 5.41663 1.09537 5.41663 1.25008V1.83341H1.91663C1.82901 1.83382 1.7426 1.85396 1.66383 1.89233C1.58506 1.93071 1.51595 1.98633 1.46163 2.05508L0.294961 3.51341C0.21358 3.6164 0.169312 3.74382 0.169312 3.87508C0.169312 4.00634 0.21358 4.13376 0.294961 4.23675L1.46163 5.69508C1.51595 5.76383 1.58506 5.81946 1.66383 5.85783C1.7426 5.89621 1.82901 5.91634 1.91663 5.91675H5.41663V11.1667H4.24996C4.09525 11.1667 3.94688 11.2282 3.83748 11.3376C3.72809 11.447 3.66663 11.5954 3.66663 11.7501C3.66663 11.9048 3.72809 12.0532 3.83748 12.1626C3.94688 12.272 4.09525 12.3334 4.24996 12.3334H7.74996C7.90467 12.3334 8.05304 12.272 8.16244 12.1626C8.27184 12.0532 8.33329 11.9048 8.33329 11.7501C8.33329 11.5954 8.27184 11.447 8.16244 11.3376C8.05304 11.2282 7.90467 11.1667 7.74996 11.1667H6.58329V8.83341H10.0833C10.1709 8.83301 10.2573 8.81287 10.3361 8.7745C10.4149 8.73612 10.484 8.6805 10.5383 8.61175L11.705 7.15341C11.7863 7.05043 11.8306 6.92301 11.8306 6.79175C11.8306 6.66049 11.7863 6.53307 11.705 6.43008ZM5.41663 4.75008H2.19663L1.49663 3.87508L2.19663 3.00008H5.41663V4.75008ZM9.80329 7.66675H6.58329V5.91675H9.80329L10.5033 6.79175L9.80329 7.66675Z" fill="#EFEBE7"/>
</svg>
